<mxfile host="app.diagrams.net" modified="2020-12-01T06:53:14.848Z" agent="5.0 (Windows NT 10.0; Win64; x64) AppleWebKit/537.36 (KHTML, like Gecko) Chrome/86.0.4240.198 Safari/537.36" etag="mKnJRv3cIk-lVnw-KNIs" version="13.10.4" type="github">
  <diagram id="C5RBs43oDa-KdzZeNtuy" name="Page-1">
    <mxGraphModel dx="1002" dy="1851" grid="1" gridSize="10" guides="1" tooltips="1" connect="1" arrows="1" fold="1" page="1" pageScale="1" pageWidth="827" pageHeight="1169" math="0" shadow="0">
      <root>
        <mxCell id="WIyWlLk6GJQsqaUBKTNV-0" />
        <mxCell id="WIyWlLk6GJQsqaUBKTNV-1" parent="WIyWlLk6GJQsqaUBKTNV-0" />
        <mxCell id="TCICsbKsThFR8vkZy2Lz-17" style="edgeStyle=orthogonalEdgeStyle;rounded=0;orthogonalLoop=1;jettySize=auto;html=1;exitX=0.5;exitY=1;exitDx=0;exitDy=0;exitPerimeter=0;entryX=0.5;entryY=0;entryDx=0;entryDy=0;" edge="1" parent="WIyWlLk6GJQsqaUBKTNV-1" source="TCICsbKsThFR8vkZy2Lz-0" target="TCICsbKsThFR8vkZy2Lz-1">
          <mxGeometry relative="1" as="geometry" />
        </mxCell>
        <mxCell id="TCICsbKsThFR8vkZy2Lz-0" value="授权登陆页面" style="strokeWidth=2;html=1;shape=mxgraph.flowchart.display;whiteSpace=wrap;" vertex="1" parent="WIyWlLk6GJQsqaUBKTNV-1">
          <mxGeometry x="700" y="-90" width="100" height="60" as="geometry" />
        </mxCell>
        <mxCell id="TCICsbKsThFR8vkZy2Lz-18" style="edgeStyle=orthogonalEdgeStyle;rounded=0;orthogonalLoop=1;jettySize=auto;html=1;exitX=0.5;exitY=1;exitDx=0;exitDy=0;" edge="1" parent="WIyWlLk6GJQsqaUBKTNV-1" source="TCICsbKsThFR8vkZy2Lz-1" target="TCICsbKsThFR8vkZy2Lz-14">
          <mxGeometry relative="1" as="geometry" />
        </mxCell>
        <mxCell id="TCICsbKsThFR8vkZy2Lz-1" value="选择管理员登陆方式" style="rounded=0;whiteSpace=wrap;html=1;" vertex="1" parent="WIyWlLk6GJQsqaUBKTNV-1">
          <mxGeometry x="690" y="30" width="120" height="60" as="geometry" />
        </mxCell>
        <mxCell id="TCICsbKsThFR8vkZy2Lz-35" style="edgeStyle=orthogonalEdgeStyle;rounded=0;orthogonalLoop=1;jettySize=auto;html=1;exitX=1;exitY=0.5;exitDx=0;exitDy=0;entryX=0;entryY=0.5;entryDx=0;entryDy=0;entryPerimeter=0;" edge="1" parent="WIyWlLk6GJQsqaUBKTNV-1" source="TCICsbKsThFR8vkZy2Lz-2" target="TCICsbKsThFR8vkZy2Lz-8">
          <mxGeometry relative="1" as="geometry" />
        </mxCell>
        <mxCell id="TCICsbKsThFR8vkZy2Lz-2" value="进入用户管理程序" style="rounded=0;whiteSpace=wrap;html=1;" vertex="1" parent="WIyWlLk6GJQsqaUBKTNV-1">
          <mxGeometry x="1030" y="95" width="120" height="60" as="geometry" />
        </mxCell>
        <mxCell id="TCICsbKsThFR8vkZy2Lz-22" style="edgeStyle=orthogonalEdgeStyle;rounded=0;orthogonalLoop=1;jettySize=auto;html=1;exitX=0.5;exitY=1;exitDx=0;exitDy=0;exitPerimeter=0;entryX=0;entryY=0.5;entryDx=0;entryDy=0;entryPerimeter=0;" edge="1" parent="WIyWlLk6GJQsqaUBKTNV-1" source="TCICsbKsThFR8vkZy2Lz-3" target="TCICsbKsThFR8vkZy2Lz-16">
          <mxGeometry relative="1" as="geometry" />
        </mxCell>
        <mxCell id="TCICsbKsThFR8vkZy2Lz-23" style="edgeStyle=orthogonalEdgeStyle;rounded=0;orthogonalLoop=1;jettySize=auto;html=1;exitX=0.5;exitY=0;exitDx=0;exitDy=0;exitPerimeter=0;entryX=0;entryY=0.5;entryDx=0;entryDy=0;entryPerimeter=0;" edge="1" parent="WIyWlLk6GJQsqaUBKTNV-1" source="TCICsbKsThFR8vkZy2Lz-3" target="TCICsbKsThFR8vkZy2Lz-0">
          <mxGeometry relative="1" as="geometry" />
        </mxCell>
        <mxCell id="TCICsbKsThFR8vkZy2Lz-3" value="验证成功" style="strokeWidth=2;html=1;shape=mxgraph.flowchart.decision;whiteSpace=wrap;" vertex="1" parent="WIyWlLk6GJQsqaUBKTNV-1">
          <mxGeometry x="490" y="240" width="100" height="100" as="geometry" />
        </mxCell>
        <mxCell id="TCICsbKsThFR8vkZy2Lz-36" style="edgeStyle=orthogonalEdgeStyle;rounded=0;orthogonalLoop=1;jettySize=auto;html=1;exitX=1;exitY=0.5;exitDx=0;exitDy=0;entryX=0.115;entryY=0.667;entryDx=0;entryDy=0;entryPerimeter=0;" edge="1" parent="WIyWlLk6GJQsqaUBKTNV-1" source="TCICsbKsThFR8vkZy2Lz-4" target="TCICsbKsThFR8vkZy2Lz-9">
          <mxGeometry relative="1" as="geometry" />
        </mxCell>
        <mxCell id="TCICsbKsThFR8vkZy2Lz-4" value="进入文章管理程序" style="rounded=0;whiteSpace=wrap;html=1;" vertex="1" parent="WIyWlLk6GJQsqaUBKTNV-1">
          <mxGeometry x="1030" y="205" width="120" height="60" as="geometry" />
        </mxCell>
        <mxCell id="TCICsbKsThFR8vkZy2Lz-37" style="edgeStyle=orthogonalEdgeStyle;rounded=0;orthogonalLoop=1;jettySize=auto;html=1;exitX=1;exitY=0.5;exitDx=0;exitDy=0;" edge="1" parent="WIyWlLk6GJQsqaUBKTNV-1" source="TCICsbKsThFR8vkZy2Lz-5" target="TCICsbKsThFR8vkZy2Lz-10">
          <mxGeometry relative="1" as="geometry" />
        </mxCell>
        <mxCell id="TCICsbKsThFR8vkZy2Lz-5" value="进入评论管理程序" style="rounded=0;whiteSpace=wrap;html=1;" vertex="1" parent="WIyWlLk6GJQsqaUBKTNV-1">
          <mxGeometry x="1030" y="305" width="120" height="60" as="geometry" />
        </mxCell>
        <mxCell id="TCICsbKsThFR8vkZy2Lz-38" style="edgeStyle=orthogonalEdgeStyle;rounded=0;orthogonalLoop=1;jettySize=auto;html=1;exitX=1;exitY=0.5;exitDx=0;exitDy=0;entryX=0;entryY=0.5;entryDx=0;entryDy=0;entryPerimeter=0;" edge="1" parent="WIyWlLk6GJQsqaUBKTNV-1" source="TCICsbKsThFR8vkZy2Lz-6" target="TCICsbKsThFR8vkZy2Lz-11">
          <mxGeometry relative="1" as="geometry" />
        </mxCell>
        <mxCell id="TCICsbKsThFR8vkZy2Lz-6" value="进入通知管理程序" style="rounded=0;whiteSpace=wrap;html=1;" vertex="1" parent="WIyWlLk6GJQsqaUBKTNV-1">
          <mxGeometry x="1030" y="415" width="120" height="60" as="geometry" />
        </mxCell>
        <mxCell id="TCICsbKsThFR8vkZy2Lz-39" style="edgeStyle=orthogonalEdgeStyle;rounded=0;orthogonalLoop=1;jettySize=auto;html=1;exitX=1;exitY=0.5;exitDx=0;exitDy=0;entryX=0.07;entryY=0.5;entryDx=0;entryDy=0;entryPerimeter=0;" edge="1" parent="WIyWlLk6GJQsqaUBKTNV-1" source="TCICsbKsThFR8vkZy2Lz-7" target="TCICsbKsThFR8vkZy2Lz-12">
          <mxGeometry relative="1" as="geometry" />
        </mxCell>
        <mxCell id="TCICsbKsThFR8vkZy2Lz-7" value="进入反馈管理程序" style="rounded=0;whiteSpace=wrap;html=1;" vertex="1" parent="WIyWlLk6GJQsqaUBKTNV-1">
          <mxGeometry x="1030" y="515" width="120" height="60" as="geometry" />
        </mxCell>
        <mxCell id="TCICsbKsThFR8vkZy2Lz-8" value="用户管理页面" style="strokeWidth=2;html=1;shape=mxgraph.flowchart.display;whiteSpace=wrap;" vertex="1" parent="WIyWlLk6GJQsqaUBKTNV-1">
          <mxGeometry x="1210" y="95" width="100" height="60" as="geometry" />
        </mxCell>
        <mxCell id="TCICsbKsThFR8vkZy2Lz-9" value="文章管理页面" style="strokeWidth=2;html=1;shape=mxgraph.flowchart.display;whiteSpace=wrap;" vertex="1" parent="WIyWlLk6GJQsqaUBKTNV-1">
          <mxGeometry x="1210" y="195" width="100" height="60" as="geometry" />
        </mxCell>
        <mxCell id="TCICsbKsThFR8vkZy2Lz-10" value="评论管理页面" style="strokeWidth=2;html=1;shape=mxgraph.flowchart.display;whiteSpace=wrap;" vertex="1" parent="WIyWlLk6GJQsqaUBKTNV-1">
          <mxGeometry x="1210" y="305" width="100" height="60" as="geometry" />
        </mxCell>
        <mxCell id="TCICsbKsThFR8vkZy2Lz-11" value="通知管理页面" style="strokeWidth=2;html=1;shape=mxgraph.flowchart.display;whiteSpace=wrap;" vertex="1" parent="WIyWlLk6GJQsqaUBKTNV-1">
          <mxGeometry x="1207" y="415" width="100" height="60" as="geometry" />
        </mxCell>
        <mxCell id="TCICsbKsThFR8vkZy2Lz-12" value="反馈管理页面" style="strokeWidth=2;html=1;shape=mxgraph.flowchart.display;whiteSpace=wrap;" vertex="1" parent="WIyWlLk6GJQsqaUBKTNV-1">
          <mxGeometry x="1210" y="515" width="100" height="60" as="geometry" />
        </mxCell>
        <mxCell id="TCICsbKsThFR8vkZy2Lz-24" style="edgeStyle=orthogonalEdgeStyle;rounded=0;orthogonalLoop=1;jettySize=auto;html=1;exitX=0;exitY=0.5;exitDx=0;exitDy=0;exitPerimeter=0;" edge="1" parent="WIyWlLk6GJQsqaUBKTNV-1" source="TCICsbKsThFR8vkZy2Lz-13" target="TCICsbKsThFR8vkZy2Lz-15">
          <mxGeometry relative="1" as="geometry">
            <Array as="points">
              <mxPoint x="840" y="20" />
              <mxPoint x="840" y="290" />
            </Array>
          </mxGeometry>
        </mxCell>
        <mxCell id="TCICsbKsThFR8vkZy2Lz-25" style="edgeStyle=orthogonalEdgeStyle;rounded=0;orthogonalLoop=1;jettySize=auto;html=1;exitX=1;exitY=0.5;exitDx=0;exitDy=0;exitPerimeter=0;entryX=-0.008;entryY=0.625;entryDx=0;entryDy=0;entryPerimeter=0;" edge="1" parent="WIyWlLk6GJQsqaUBKTNV-1" source="TCICsbKsThFR8vkZy2Lz-13" target="TCICsbKsThFR8vkZy2Lz-2">
          <mxGeometry relative="1" as="geometry" />
        </mxCell>
        <mxCell id="TCICsbKsThFR8vkZy2Lz-26" style="edgeStyle=orthogonalEdgeStyle;rounded=0;orthogonalLoop=1;jettySize=auto;html=1;exitX=1;exitY=0.5;exitDx=0;exitDy=0;exitPerimeter=0;entryX=0;entryY=0.5;entryDx=0;entryDy=0;" edge="1" parent="WIyWlLk6GJQsqaUBKTNV-1" source="TCICsbKsThFR8vkZy2Lz-13" target="TCICsbKsThFR8vkZy2Lz-4">
          <mxGeometry relative="1" as="geometry" />
        </mxCell>
        <mxCell id="TCICsbKsThFR8vkZy2Lz-40" style="edgeStyle=orthogonalEdgeStyle;rounded=0;orthogonalLoop=1;jettySize=auto;html=1;exitX=1;exitY=0.5;exitDx=0;exitDy=0;exitPerimeter=0;entryX=0;entryY=0.5;entryDx=0;entryDy=0;" edge="1" parent="WIyWlLk6GJQsqaUBKTNV-1" source="TCICsbKsThFR8vkZy2Lz-13" target="TCICsbKsThFR8vkZy2Lz-5">
          <mxGeometry relative="1" as="geometry" />
        </mxCell>
        <mxCell id="TCICsbKsThFR8vkZy2Lz-41" style="edgeStyle=orthogonalEdgeStyle;rounded=0;orthogonalLoop=1;jettySize=auto;html=1;exitX=1;exitY=0.5;exitDx=0;exitDy=0;exitPerimeter=0;entryX=0;entryY=0.75;entryDx=0;entryDy=0;" edge="1" parent="WIyWlLk6GJQsqaUBKTNV-1" source="TCICsbKsThFR8vkZy2Lz-13" target="TCICsbKsThFR8vkZy2Lz-6">
          <mxGeometry relative="1" as="geometry" />
        </mxCell>
        <mxCell id="TCICsbKsThFR8vkZy2Lz-42" style="edgeStyle=orthogonalEdgeStyle;rounded=0;orthogonalLoop=1;jettySize=auto;html=1;exitX=1;exitY=0.5;exitDx=0;exitDy=0;exitPerimeter=0;entryX=0;entryY=0.5;entryDx=0;entryDy=0;" edge="1" parent="WIyWlLk6GJQsqaUBKTNV-1" source="TCICsbKsThFR8vkZy2Lz-13" target="TCICsbKsThFR8vkZy2Lz-7">
          <mxGeometry relative="1" as="geometry" />
        </mxCell>
        <mxCell id="TCICsbKsThFR8vkZy2Lz-13" value="数据库" style="strokeWidth=2;html=1;shape=mxgraph.flowchart.direct_data;whiteSpace=wrap;" vertex="1" parent="WIyWlLk6GJQsqaUBKTNV-1">
          <mxGeometry x="880" y="-10" width="100" height="60" as="geometry" />
        </mxCell>
        <mxCell id="TCICsbKsThFR8vkZy2Lz-19" style="edgeStyle=orthogonalEdgeStyle;rounded=0;orthogonalLoop=1;jettySize=auto;html=1;exitX=0.5;exitY=1;exitDx=0;exitDy=0;exitPerimeter=0;" edge="1" parent="WIyWlLk6GJQsqaUBKTNV-1" source="TCICsbKsThFR8vkZy2Lz-14" target="TCICsbKsThFR8vkZy2Lz-15">
          <mxGeometry relative="1" as="geometry" />
        </mxCell>
        <mxCell id="TCICsbKsThFR8vkZy2Lz-14" value="管理员账号验证框" style="strokeWidth=2;html=1;shape=mxgraph.flowchart.display;whiteSpace=wrap;" vertex="1" parent="WIyWlLk6GJQsqaUBKTNV-1">
          <mxGeometry x="700" y="160" width="100" height="60" as="geometry" />
        </mxCell>
        <mxCell id="TCICsbKsThFR8vkZy2Lz-21" style="edgeStyle=orthogonalEdgeStyle;rounded=0;orthogonalLoop=1;jettySize=auto;html=1;exitX=0;exitY=0.5;exitDx=0;exitDy=0;" edge="1" parent="WIyWlLk6GJQsqaUBKTNV-1" source="TCICsbKsThFR8vkZy2Lz-15" target="TCICsbKsThFR8vkZy2Lz-3">
          <mxGeometry relative="1" as="geometry" />
        </mxCell>
        <mxCell id="TCICsbKsThFR8vkZy2Lz-15" value="验证管理员身份程序" style="rounded=0;whiteSpace=wrap;html=1;" vertex="1" parent="WIyWlLk6GJQsqaUBKTNV-1">
          <mxGeometry x="690" y="260" width="120" height="60" as="geometry" />
        </mxCell>
        <mxCell id="TCICsbKsThFR8vkZy2Lz-43" style="edgeStyle=orthogonalEdgeStyle;rounded=0;orthogonalLoop=1;jettySize=auto;html=1;exitX=1;exitY=0.5;exitDx=0;exitDy=0;exitPerimeter=0;entryX=-0.008;entryY=0.633;entryDx=0;entryDy=0;entryPerimeter=0;" edge="1" parent="WIyWlLk6GJQsqaUBKTNV-1" source="TCICsbKsThFR8vkZy2Lz-16" target="TCICsbKsThFR8vkZy2Lz-2">
          <mxGeometry relative="1" as="geometry" />
        </mxCell>
        <mxCell id="TCICsbKsThFR8vkZy2Lz-44" style="edgeStyle=orthogonalEdgeStyle;rounded=0;orthogonalLoop=1;jettySize=auto;html=1;exitX=1;exitY=0.5;exitDx=0;exitDy=0;exitPerimeter=0;entryX=0;entryY=0.5;entryDx=0;entryDy=0;" edge="1" parent="WIyWlLk6GJQsqaUBKTNV-1" source="TCICsbKsThFR8vkZy2Lz-16" target="TCICsbKsThFR8vkZy2Lz-4">
          <mxGeometry relative="1" as="geometry" />
        </mxCell>
        <mxCell id="TCICsbKsThFR8vkZy2Lz-45" style="edgeStyle=orthogonalEdgeStyle;rounded=0;orthogonalLoop=1;jettySize=auto;html=1;exitX=1;exitY=0.5;exitDx=0;exitDy=0;exitPerimeter=0;entryX=0;entryY=0.5;entryDx=0;entryDy=0;" edge="1" parent="WIyWlLk6GJQsqaUBKTNV-1" source="TCICsbKsThFR8vkZy2Lz-16" target="TCICsbKsThFR8vkZy2Lz-5">
          <mxGeometry relative="1" as="geometry" />
        </mxCell>
        <mxCell id="TCICsbKsThFR8vkZy2Lz-46" style="edgeStyle=orthogonalEdgeStyle;rounded=0;orthogonalLoop=1;jettySize=auto;html=1;exitX=1;exitY=0.5;exitDx=0;exitDy=0;exitPerimeter=0;entryX=0;entryY=0.75;entryDx=0;entryDy=0;" edge="1" parent="WIyWlLk6GJQsqaUBKTNV-1" source="TCICsbKsThFR8vkZy2Lz-16" target="TCICsbKsThFR8vkZy2Lz-6">
          <mxGeometry relative="1" as="geometry" />
        </mxCell>
        <mxCell id="TCICsbKsThFR8vkZy2Lz-47" style="edgeStyle=orthogonalEdgeStyle;rounded=0;orthogonalLoop=1;jettySize=auto;html=1;exitX=1;exitY=0.5;exitDx=0;exitDy=0;exitPerimeter=0;entryX=0;entryY=0.5;entryDx=0;entryDy=0;" edge="1" parent="WIyWlLk6GJQsqaUBKTNV-1" source="TCICsbKsThFR8vkZy2Lz-16" target="TCICsbKsThFR8vkZy2Lz-7">
          <mxGeometry relative="1" as="geometry" />
        </mxCell>
        <mxCell id="TCICsbKsThFR8vkZy2Lz-16" value="管理员管理主页" style="strokeWidth=2;html=1;shape=mxgraph.flowchart.display;whiteSpace=wrap;" vertex="1" parent="WIyWlLk6GJQsqaUBKTNV-1">
          <mxGeometry x="700" y="410" width="100" height="60" as="geometry" />
        </mxCell>
      </root>
    </mxGraphModel>
  </diagram>
</mxfile>
